<svg width="966" height="539" viewBox="0 0 966 539" fill="none" xmlns="http://www.w3.org/2000/svg">
<mask id="mask0_260_160" style="mask-type:luminance" maskUnits="userSpaceOnUse" x="0" y="0" width="810" height="539">
<path d="M809.333 0H0V538.667H809.333V0Z" fill="white"/>
</mask>
<g mask="url(#mask0_260_160)">
<mask id="mask1_260_160" style="mask-type:luminance" maskUnits="userSpaceOnUse" x="0" y="137" width="549" height="325">
<path d="M0.104248 137.333H548V461.334H0.104248V137.333Z" fill="white"/>
</mask>
<g mask="url(#mask1_260_160)">
<mask id="mask2_260_160" style="mask-type:luminance" maskUnits="userSpaceOnUse" x="0" y="137" width="548" height="325">
<path d="M548 137.333H0V461.333H548V137.333Z" fill="white"/>
</mask>
<g mask="url(#mask2_260_160)">
<mask id="mask3_260_160" style="mask-type:luminance" maskUnits="userSpaceOnUse" x="12" y="201" width="195" height="260">
<path d="M12 201.333H206.667V460.375H12V201.333Z" fill="white"/>
</mask>
<g mask="url(#mask3_260_160)">
<path d="M109.724 460.321C94.0004 460.321 80.5368 458.352 69.3285 454.425C58.1306 450.492 48.9587 445.185 41.8077 438.508C34.667 431.841 29.3389 424.341 25.8285 416.008C22.3129 407.675 20.3754 399.154 20.016 390.446H60.766C62.0681 396.888 64.4535 402.612 67.9118 407.612C71.3702 412.612 76.4587 416.571 83.1827 419.487C89.917 422.404 98.7087 423.862 109.558 423.862C119.558 423.862 128.068 422.43 135.099 419.571C142.125 416.722 147.839 412.789 152.245 407.779C156.662 402.779 159.881 397.034 161.912 390.55C163.938 384.05 164.953 377.232 164.953 370.091V351.321C158.756 363.352 150.026 372.17 138.766 377.779C127.5 383.378 115.021 386.175 101.328 386.175C88.3389 386.175 76.3962 383.795 65.4952 379.029C54.5889 374.253 45.2087 367.696 37.3493 359.362C29.4847 351.018 23.3806 341.336 19.0368 330.321C14.6879 319.31 12.516 307.545 12.516 295.029C12.516 282.518 14.6514 270.664 18.9327 259.466C23.2243 248.274 29.2712 238.3 37.0785 229.55C44.8806 220.789 54.1202 213.904 64.7868 208.904C75.4535 203.893 87.1514 201.383 99.891 201.383C110.849 201.383 120.646 203.143 129.287 206.654C137.922 210.17 145.25 214.732 151.266 220.341C157.292 225.94 161.912 231.893 165.12 238.196V206.925H206.224V369.55C206.224 382.414 204.141 394.347 199.974 405.362C195.808 416.388 189.61 426.013 181.391 434.237C173.167 442.456 163.068 448.862 151.099 453.446C139.125 458.029 125.334 460.321 109.724 460.321ZM109.37 348.633C116.87 348.633 123.896 347.237 130.453 344.446C137.006 341.643 142.756 337.737 147.703 332.737C152.646 327.737 156.485 321.998 159.224 315.508C161.959 309.008 163.328 302.123 163.328 294.841C163.328 287.706 161.959 280.92 159.224 274.487C156.485 268.045 152.672 262.352 147.787 257.404C142.896 252.461 137.172 248.565 130.62 245.716C124.078 242.857 116.995 241.425 109.37 241.425C99.2452 241.425 90.0993 243.69 81.9327 248.216C73.7764 252.748 67.3129 259.003 62.5368 266.987C57.7712 274.961 55.391 284.248 55.391 294.841C55.391 305.216 57.7712 314.456 62.5368 322.55C67.3129 330.649 73.7764 337.024 81.9327 341.675C90.0993 346.315 99.2452 348.633 109.37 348.633Z" fill="#052E1C"/>
</g>
<path d="M466.353 201.383C489.462 201.383 506.733 209.216 518.165 224.883C529.608 240.55 535.332 262.8 535.332 291.633V390.633H492.624V292.529C492.624 274.42 489.134 261.341 482.165 253.3C475.191 245.258 465.749 241.237 453.832 241.237C446.207 241.237 438.999 243.565 432.207 248.216C425.426 252.857 419.947 259.352 415.77 267.696C411.603 276.029 409.52 285.737 409.52 296.821V390.633H366.811V292.529C366.811 274.42 363.322 261.341 356.353 253.3C349.395 245.258 340.009 241.237 328.207 241.237C320.468 241.237 313.233 243.565 306.499 248.216C299.775 252.857 294.322 259.352 290.145 267.696C285.978 276.029 283.895 285.737 283.895 296.821V390.633H241.186V206.925H281.582L282.103 235.529C285.322 228.977 289.79 223.133 295.499 218.008C301.218 212.883 307.921 208.836 315.603 205.862C323.296 202.878 331.671 201.383 340.728 201.383C356.087 201.383 368.858 204.935 379.04 212.029C389.233 219.112 396.895 229.383 402.02 242.841C409.879 228.675 419.29 218.227 430.249 211.487C441.207 204.753 453.238 201.383 466.353 201.383Z" fill="#052E1C"/>
</g>
</g>
<mask id="mask4_260_160" style="mask-type:luminance" maskUnits="userSpaceOnUse" x="533" y="1" width="276" height="537">
<path d="M533.333 1.17188H808.104V537.495H533.333V1.17188Z" fill="white"/>
</mask>
<g mask="url(#mask4_260_160)">
<mask id="mask5_260_160" style="mask-type:luminance" maskUnits="userSpaceOnUse" x="533" y="0" width="277" height="539">
<path d="M809.333 0H533.333V538.667H809.333V0Z" fill="white"/>
</mask>
<g mask="url(#mask5_260_160)">
<path d="M629.94 390.918C607.05 390.918 589.654 385.043 577.753 373.293C565.847 361.543 559.899 345.449 559.899 325.001C559.899 311.892 562.409 297.178 567.44 280.855C572.482 264.522 578.513 248.272 585.545 232.105C597.737 200.064 608.946 172.225 619.17 148.584C629.388 124.933 639.305 105.251 648.92 89.5427C658.529 73.824 668.446 62.074 678.67 54.2927C688.888 46.5011 700.409 42.6052 713.232 42.6052C725.743 42.6052 736.045 46.5011 744.128 54.2927C752.211 62.074 756.253 72.975 756.253 87.0011C756.253 99.5167 752.967 113.407 746.399 128.668C739.842 143.918 730.154 160.017 717.336 176.959C704.529 193.892 688.67 211.355 669.753 229.355C650.836 247.355 629.013 265.511 604.295 283.814C602.17 288.095 600.112 293.814 598.128 300.98C596.138 308.147 595.149 314.329 595.149 319.522C595.149 330.204 598.045 338.897 603.836 345.605C609.638 352.314 619.862 355.668 634.503 355.668C647.628 355.668 660.821 353.23 674.086 348.355C687.362 343.47 700.336 336.751 713.003 328.209C725.67 319.668 737.717 309.829 749.149 298.689C760.592 287.553 770.888 275.574 780.045 262.751L804.774 286.105C793.482 301.053 781.045 314.933 767.461 327.751C753.888 340.574 739.701 351.636 724.899 360.939C710.107 370.246 694.696 377.574 678.67 382.918C662.654 388.251 646.409 390.918 629.94 390.918ZM627.19 224.314C638.175 213.939 649.232 202.808 660.357 190.918C671.493 179.017 681.487 167.116 690.336 155.209C699.196 143.308 706.446 131.866 712.086 120.876C717.722 109.892 720.545 100.126 720.545 91.5844C720.545 87.0011 719.472 83.6469 717.336 81.5219C715.211 79.3865 712.618 78.3136 709.565 78.3136C705.3 78.3136 701.029 79.9177 696.753 83.1261C692.472 86.324 687.815 91.8136 682.774 99.6052C677.743 107.386 672.107 117.834 665.857 130.959C659.607 144.074 652.513 160.699 644.586 180.834L627.19 224.314Z" fill="#052E1C"/>
</g>
</g>
</g>
<mask id="mask6_260_160" style="mask-type:luminance" maskUnits="userSpaceOnUse" x="233" y="417" width="733" height="74">
<path d="M965.333 417.333H233.333V490.667H965.333V417.333Z" fill="white"/>
</mask>
<g mask="url(#mask6_260_160)">
<path d="M248.832 475.082H241.874V421.519H263.832C266.426 421.519 268.812 421.957 270.978 422.832C273.145 423.696 275.025 424.91 276.624 426.477C278.233 428.035 279.468 429.884 280.332 432.019C281.207 434.16 281.645 436.493 281.645 439.019C281.645 441.644 281.207 444.04 280.332 446.207C279.468 448.373 278.249 450.243 276.666 451.811C275.093 453.384 273.233 454.602 271.082 455.477C268.926 456.342 266.567 456.769 263.999 456.769H248.832V475.082ZM248.832 427.79V450.477H263.687C265.78 450.477 267.655 449.977 269.312 448.977C270.963 447.977 272.27 446.618 273.228 444.894C274.187 443.16 274.666 441.217 274.666 439.061C274.666 437.509 274.384 436.056 273.832 434.707C273.291 433.347 272.509 432.154 271.499 431.123C270.483 430.082 269.301 429.269 267.957 428.686C266.624 428.092 265.171 427.79 263.603 427.79H248.832Z" fill="#29D067"/>
<path d="M293.062 475.082H286.104V421.519H308.854C311.448 421.519 313.833 421.925 316 422.727C318.166 423.535 320.041 424.681 321.625 426.165C323.218 427.639 324.448 429.41 325.312 431.477C326.187 433.535 326.625 435.826 326.625 438.352C326.625 440.977 326.135 443.347 325.166 445.457C324.192 447.571 322.823 449.347 321.062 450.79C319.296 452.238 317.234 453.269 314.875 453.894L327.791 475.082H319.77L307.875 454.915C307.583 454.946 307.291 454.957 307 454.957C306.718 454.957 306.437 454.957 306.145 454.957H293.062V475.082ZM293.062 427.79V449.019H308.708C310.802 448.993 312.671 448.54 314.312 447.665C315.948 446.779 317.25 445.535 318.208 443.936C319.166 442.342 319.645 440.488 319.645 438.373C319.645 436.332 319.156 434.519 318.187 432.936C317.213 431.342 315.895 430.082 314.229 429.165C312.562 428.248 310.677 427.79 308.583 427.79H293.062Z" fill="#29D067"/>
<path d="M357.569 476.144C354.428 476.144 351.423 475.675 348.548 474.748C345.683 473.821 343.069 472.498 340.694 470.79C338.319 469.081 336.246 467.071 334.485 464.748C332.735 462.43 331.381 459.884 330.423 457.102C329.465 454.311 328.985 451.368 328.985 448.269C328.985 445.144 329.465 442.186 330.423 439.394C331.381 436.592 332.735 434.029 334.485 431.706C336.246 429.389 338.319 427.384 340.694 425.686C343.069 423.993 345.683 422.68 348.548 421.748C351.423 420.821 354.428 420.352 357.569 420.352C360.746 420.352 363.767 420.821 366.631 421.748C369.491 422.68 372.116 423.993 374.506 425.686C376.892 427.384 378.965 429.389 380.715 431.706C382.475 434.029 383.84 436.592 384.798 439.394C385.756 442.186 386.235 445.144 386.235 448.269C386.235 451.368 385.756 454.311 384.798 457.102C383.84 459.884 382.475 462.43 380.715 464.748C378.965 467.071 376.892 469.081 374.506 470.79C372.116 472.498 369.491 473.821 366.631 474.748C363.767 475.675 360.746 476.144 357.569 476.144ZM357.569 469.686C360.569 469.686 363.381 469.154 366.006 468.081C368.631 466.998 370.933 465.488 372.923 463.54C374.923 461.597 376.475 459.326 377.59 456.727C378.715 454.134 379.277 451.311 379.277 448.269C379.277 445.227 378.715 442.404 377.59 439.79C376.475 437.165 374.923 434.889 372.923 432.956C370.933 431.014 368.631 429.498 366.006 428.415C363.381 427.321 360.569 426.769 357.569 426.769C354.579 426.769 351.782 427.321 349.173 428.415C346.558 429.498 344.261 431.014 342.277 432.956C340.287 434.889 338.741 437.165 337.631 439.79C336.517 442.404 335.965 445.227 335.965 448.269C335.965 451.311 336.517 454.134 337.631 456.727C338.741 459.326 340.287 461.597 342.277 463.54C344.261 465.488 346.558 466.998 349.173 468.081C351.782 469.154 354.579 469.686 357.569 469.686Z" fill="#29D067"/>
<path d="M411.969 475.082H392.281V421.519H411.844C416.063 421.519 419.906 422.16 423.365 423.436C426.833 424.717 429.823 426.535 432.323 428.894C434.823 431.259 436.74 434.076 438.073 437.352C439.406 440.618 440.073 444.259 440.073 448.269C440.073 452.285 439.406 455.936 438.073 459.227C436.74 462.519 434.828 465.352 432.344 467.727C429.854 470.092 426.891 471.91 423.448 473.186C420.016 474.451 416.188 475.082 411.969 475.082ZM399.136 427.748V468.79H411.802C416.188 468.79 419.958 467.957 423.115 466.29C426.281 464.623 428.724 462.264 430.448 459.207C432.167 456.139 433.031 452.54 433.031 448.415C433.031 444.279 432.167 440.66 430.448 437.561C428.724 434.467 426.266 432.056 423.073 430.332C419.891 428.613 416.083 427.748 411.656 427.748H399.136Z" fill="#29D067"/>
<path d="M467.303 476.186C464.178 476.186 461.267 475.67 458.574 474.644C455.876 473.618 453.522 472.154 451.512 470.248C449.512 468.331 447.949 466.029 446.824 463.331C445.699 460.639 445.137 457.639 445.137 454.331V421.498H452.053V453.811C452.053 455.993 452.387 458.04 453.053 459.956C453.73 461.873 454.72 463.571 456.012 465.04C457.314 466.514 458.913 467.665 460.803 468.498C462.689 469.321 464.855 469.727 467.303 469.727C469.689 469.727 471.824 469.326 473.699 468.519C475.574 467.701 477.163 466.561 478.47 465.102C479.788 463.644 480.788 461.956 481.47 460.04C482.147 458.123 482.491 456.076 482.491 453.894V421.498H489.47V454.331C489.47 457.555 488.918 460.508 487.824 463.186C486.741 465.868 485.204 468.175 483.22 470.102C481.246 472.035 478.908 473.535 476.199 474.602C473.491 475.654 470.522 476.186 467.303 476.186Z" fill="#29D067"/>
<path d="M522.39 476.144C519.233 476.144 516.254 475.675 513.452 474.748C510.645 473.821 508.082 472.498 505.765 470.79C503.457 469.081 501.457 467.071 499.765 464.748C498.067 462.43 496.765 459.884 495.848 457.102C494.931 454.311 494.473 451.368 494.473 448.269C494.473 445.144 494.931 442.186 495.848 439.394C496.765 436.592 498.067 434.029 499.765 431.706C501.457 429.389 503.457 427.384 505.765 425.686C508.082 423.993 510.645 422.68 513.452 421.748C516.254 420.821 519.233 420.352 522.39 420.352C525.223 420.352 527.994 420.759 530.702 421.561C533.41 422.352 535.9 423.555 538.181 425.165C540.473 426.779 542.431 428.8 544.056 431.227C545.681 433.66 546.817 436.493 547.473 439.727H540.39C539.567 436.842 538.275 434.436 536.515 432.519C534.765 430.602 532.66 429.165 530.202 428.206C527.754 427.248 525.087 426.769 522.202 426.769C519.285 426.769 516.561 427.3 514.035 428.352C511.52 429.394 509.327 430.884 507.452 432.811C505.577 434.743 504.103 437.014 503.035 439.623C501.978 442.238 501.452 445.118 501.452 448.269C501.452 451.425 501.978 454.311 503.035 456.936C504.103 459.561 505.577 461.826 507.452 463.727C509.327 465.634 511.52 467.102 514.035 468.144C516.561 469.175 519.285 469.686 522.202 469.686C525.087 469.686 527.749 469.206 530.181 468.248C532.624 467.29 534.728 465.852 536.494 463.936C538.27 462.019 539.556 459.634 540.348 456.769H547.473C546.817 460.009 545.681 462.842 544.056 465.269C542.442 467.686 540.499 469.706 538.223 471.331C535.942 472.946 533.452 474.154 530.744 474.956C528.035 475.748 525.249 476.144 522.39 476.144Z" fill="#29D067"/>
<path d="M572.098 475.082H565.118V427.79H548.202V421.519H589.077V427.79H572.098V475.082Z" fill="#29D067"/>
<path d="M629.062 475.082H609.375V421.519H628.937C633.156 421.519 637 422.16 640.458 423.436C643.927 424.717 646.916 426.535 649.416 428.894C651.916 431.259 653.833 434.076 655.166 437.352C656.5 440.618 657.166 444.259 657.166 448.269C657.166 452.285 656.5 455.936 655.166 459.227C653.833 462.519 651.921 465.352 649.437 467.727C646.947 470.092 643.984 471.91 640.541 473.186C637.109 474.451 633.281 475.082 629.062 475.082ZM616.229 427.748V468.79H628.895C633.281 468.79 637.052 467.957 640.208 466.29C643.375 464.623 645.817 462.264 647.541 459.207C649.26 456.139 650.125 452.54 650.125 448.415C650.125 444.279 649.26 440.66 647.541 437.561C645.817 434.467 643.359 432.056 640.166 430.332C636.984 428.613 633.177 427.748 628.75 427.748H616.229Z" fill="#29D067"/>
<path d="M699.188 475.082H663.251V421.519H698.834V427.873H670.209V444.832H695.105V450.832H670.209V468.79H699.188V475.082Z" fill="#29D067"/>
<path d="M721.569 476.227C717.944 476.227 714.804 475.748 712.153 474.79C709.496 473.831 707.309 472.555 705.59 470.956C703.882 469.347 702.611 467.555 701.778 465.581C700.955 463.597 700.549 461.592 700.549 459.561H707.507C707.507 461.425 708.059 463.175 709.174 464.811C710.299 466.436 711.903 467.748 713.986 468.748C716.08 469.748 718.595 470.248 721.528 470.248C726.095 470.248 729.601 469.415 732.049 467.748C734.491 466.071 735.715 463.576 735.715 460.269C735.715 458.175 735.101 456.488 733.882 455.206C732.658 453.915 730.991 452.91 728.882 452.186C726.783 451.467 724.403 450.91 721.736 450.519C719.944 450.227 718.116 449.852 716.257 449.394C714.392 448.936 712.611 448.342 710.903 447.602C709.194 446.868 707.658 445.956 706.299 444.873C704.95 443.779 703.882 442.436 703.09 440.852C702.309 439.259 701.924 437.384 701.924 435.227C701.924 433.243 702.283 431.352 703.007 429.561C703.726 427.759 704.861 426.165 706.403 424.79C707.955 423.404 709.955 422.321 712.403 421.54C714.861 420.748 717.84 420.352 721.34 420.352C725.533 420.352 729.059 421.009 731.924 422.311C734.783 423.602 736.95 425.394 738.424 427.686C739.892 429.967 740.632 432.597 740.632 435.581H733.611C733.611 433.805 733.137 432.238 732.194 430.873C731.246 429.498 729.861 428.43 728.028 427.665C726.194 426.889 723.934 426.498 721.257 426.498C718.84 426.498 716.825 426.748 715.215 427.248C713.616 427.738 712.361 428.394 711.444 429.227C710.528 430.05 709.866 430.988 709.465 432.04C709.075 433.097 708.882 434.175 708.882 435.269C708.882 437.134 709.465 438.675 710.632 439.894C711.809 441.118 713.512 442.097 715.736 442.831C717.97 443.571 720.694 444.16 723.903 444.602C725.679 444.894 727.465 445.279 729.257 445.748C731.059 446.222 732.767 446.831 734.382 447.581C736.007 448.331 737.444 449.279 738.694 450.415C739.955 451.555 740.95 452.936 741.674 454.561C742.392 456.175 742.757 458.076 742.757 460.269C742.757 463.602 741.903 466.467 740.194 468.852C738.486 471.243 736.049 473.071 732.882 474.331C729.726 475.592 725.955 476.227 721.569 476.227Z" fill="#29D067"/>
<path d="M755.322 475.082H748.364V421.519H755.322V475.082Z" fill="#29D067"/>
<path d="M789.527 476.102C786.402 476.102 783.423 475.634 780.59 474.706C777.767 473.779 775.194 472.467 772.861 470.769C770.527 469.076 768.496 467.071 766.777 464.748C765.053 462.43 763.725 459.884 762.798 457.102C761.866 454.311 761.402 451.368 761.402 448.269C761.402 445.144 761.866 442.186 762.798 439.394C763.725 436.592 765.053 434.029 766.777 431.706C768.496 429.389 770.527 427.384 772.861 425.686C775.194 423.993 777.767 422.68 780.59 421.748C783.423 420.821 786.402 420.352 789.527 420.352C792.361 420.352 795.142 420.759 797.882 421.561C800.632 422.352 803.163 423.529 805.486 425.081C807.803 426.623 809.803 428.519 811.486 430.769C813.163 433.009 814.361 435.555 815.069 438.415H807.986C806.986 435.972 805.569 433.884 803.736 432.144C801.913 430.394 799.783 429.061 797.34 428.144C794.908 427.227 792.246 426.769 789.361 426.769C786.444 426.769 783.715 427.3 781.173 428.352C778.642 429.394 776.413 430.884 774.486 432.811C772.569 434.743 771.069 437.019 769.986 439.644C768.913 442.269 768.382 445.144 768.382 448.269C768.382 451.425 768.913 454.311 769.986 456.936C771.069 459.561 772.569 461.826 774.486 463.727C776.413 465.634 778.642 467.102 781.173 468.144C783.715 469.175 786.444 469.686 789.361 469.686C792.402 469.686 795.09 469.264 797.423 468.415C799.767 467.555 801.783 466.373 803.465 464.873C805.142 463.363 806.486 461.613 807.486 459.623C808.496 457.623 809.194 455.477 809.569 453.186H789.132V446.894H816.798C816.798 450.936 816.199 454.727 815.007 458.269C813.809 461.811 812.048 464.915 809.715 467.581C807.382 470.248 804.517 472.342 801.132 473.852C797.741 475.352 793.871 476.102 789.527 476.102Z" fill="#29D067"/>
<path d="M861.781 463.498V421.519H868.718V475.082H862.801L829.843 433.227V475.082H822.885V421.519H828.739L861.739 463.498H861.781Z" fill="#29D067"/>
<path d="M914.785 475.082H878.848V421.519H914.431V427.873H885.806V444.832H910.702V450.832H885.806V468.79H914.785V475.082Z" fill="#29D067"/>
<path d="M927.437 475.082H920.479V421.519H943.229C945.823 421.519 948.208 421.925 950.375 422.727C952.542 423.535 954.417 424.681 956 426.165C957.594 427.639 958.823 429.41 959.687 431.477C960.562 433.535 961 435.826 961 438.352C961 440.977 960.51 443.347 959.542 445.457C958.568 447.571 957.198 449.347 955.437 450.79C953.672 452.238 951.609 453.269 949.25 453.894L962.167 475.082H954.146L942.25 454.915C941.958 454.946 941.667 454.957 941.375 454.957C941.094 454.957 940.812 454.957 940.521 454.957H927.437V475.082ZM927.437 427.79V449.019H943.083C945.177 448.993 947.047 448.54 948.687 447.665C950.323 446.779 951.625 445.535 952.583 443.936C953.542 442.342 954.021 440.488 954.021 438.373C954.021 436.332 953.531 434.519 952.562 432.936C951.588 431.342 950.271 430.082 948.604 429.165C946.937 428.248 945.052 427.79 942.958 427.79H927.437Z" fill="#29D067"/>
</g>
</svg>
