<svg xmlns="http://www.w3.org/2000/svg" xmlns:xlink="http://www.w3.org/1999/xlink" width="500" zoomAndPan="magnify" viewBox="0 0 375 374.999991" height="500" preserveAspectRatio="xMidYMid meet" version="1.0"><defs><g/><clipPath id="4c037dfd14"><path d="M 3 13 L 42 13 L 42 64.601562 L 3 64.601562 Z M 3 13 " clip-rule="nonzero"/></clipPath><clipPath id="8ed9e8ac17"><rect x="0" width="110" y="0" height="65"/></clipPath><clipPath id="c1ba1d594c"><path d="M 5 8 L 54.878906 8 L 54.878906 78 L 5 78 Z M 5 8 " clip-rule="nonzero"/></clipPath><clipPath id="0e0235986f"><rect x="0" width="55" y="0" height="107"/></clipPath></defs><rect x="-37.5" width="450" fill="#ffffff" y="-37.499999" height="449.999989" fill-opacity="1"/><rect x="-37.5" width="450" fill="#052e1c" y="-37.499999" height="449.999989" fill-opacity="1"/><g transform="matrix(1, 0, 0, 1, 106, 161)"><g clip-path="url(#8ed9e8ac17)"><g clip-path="url(#4c037dfd14)"><g fill="#f7f2e8" fill-opacity="1"><g transform="translate(0.587317, 50.562372)"><g><path d="M 21.734375 13.828125 C 18.609375 13.828125 15.9375 13.4375 13.71875 12.65625 C 11.5 11.875 9.675781 10.820312 8.25 9.5 C 6.832031 8.175781 5.773438 6.6875 5.078125 5.03125 C 4.390625 3.375 4.007812 1.6875 3.9375 -0.03125 L 12.015625 -0.03125 C 12.273438 1.238281 12.75 2.367188 13.4375 3.359375 C 14.125 4.359375 15.132812 5.144531 16.46875 5.71875 C 17.800781 6.300781 19.539062 6.59375 21.6875 6.59375 C 23.675781 6.59375 25.367188 6.304688 26.765625 5.734375 C 28.160156 5.171875 29.289062 4.394531 30.15625 3.40625 C 31.03125 2.414062 31.671875 1.273438 32.078125 -0.015625 C 32.484375 -1.304688 32.6875 -2.660156 32.6875 -4.078125 L 32.6875 -7.796875 C 31.457031 -5.410156 29.722656 -3.660156 27.484375 -2.546875 C 25.253906 -1.441406 22.78125 -0.890625 20.0625 -0.890625 C 17.488281 -0.890625 15.117188 -1.359375 12.953125 -2.296875 C 10.796875 -3.242188 8.9375 -4.546875 7.375 -6.203125 C 5.8125 -7.859375 4.597656 -9.773438 3.734375 -11.953125 C 2.878906 -14.140625 2.453125 -16.476562 2.453125 -18.96875 C 2.453125 -21.445312 2.875 -23.796875 3.71875 -26.015625 C 4.570312 -28.234375 5.769531 -30.210938 7.3125 -31.953125 C 8.863281 -33.691406 10.695312 -35.054688 12.8125 -36.046875 C 14.925781 -37.035156 17.25 -37.53125 19.78125 -37.53125 C 21.957031 -37.53125 23.898438 -37.179688 25.609375 -36.484375 C 27.328125 -35.796875 28.78125 -34.894531 29.96875 -33.78125 C 31.164062 -32.664062 32.082031 -31.484375 32.71875 -30.234375 L 32.71875 -36.4375 L 40.875 -36.4375 L 40.875 -4.1875 C 40.875 -1.632812 40.457031 0.734375 39.625 2.921875 C 38.800781 5.109375 37.570312 7.015625 35.9375 8.640625 C 34.3125 10.273438 32.3125 11.546875 29.9375 12.453125 C 27.5625 13.367188 24.828125 13.828125 21.734375 13.828125 Z M 21.65625 -8.328125 C 23.144531 -8.328125 24.539062 -8.601562 25.84375 -9.15625 C 27.144531 -9.71875 28.285156 -10.492188 29.265625 -11.484375 C 30.242188 -12.472656 31.003906 -13.613281 31.546875 -14.90625 C 32.085938 -16.195312 32.359375 -17.5625 32.359375 -19 C 32.359375 -20.414062 32.085938 -21.757812 31.546875 -23.03125 C 31.003906 -24.3125 30.25 -25.441406 29.28125 -26.421875 C 28.3125 -27.398438 27.175781 -28.171875 25.875 -28.734375 C 24.570312 -29.304688 23.164062 -29.59375 21.65625 -29.59375 C 19.644531 -29.59375 17.828125 -29.144531 16.203125 -28.25 C 14.585938 -27.351562 13.304688 -26.113281 12.359375 -24.53125 C 11.421875 -22.945312 10.953125 -21.101562 10.953125 -19 C 10.953125 -16.945312 11.421875 -15.113281 12.359375 -13.5 C 13.304688 -11.894531 14.585938 -10.628906 16.203125 -9.703125 C 17.828125 -8.785156 19.644531 -8.328125 21.65625 -8.328125 Z M 21.65625 -8.328125 "/></g></g></g></g><g fill="#f7f2e8" fill-opacity="1"><g transform="translate(43.361777, 50.562372)"><g><path d="M 49.703125 -37.53125 C 54.285156 -37.53125 57.707031 -35.976562 59.96875 -32.875 C 62.238281 -29.769531 63.375 -25.359375 63.375 -19.640625 L 63.375 0 L 54.90625 0 L 54.90625 -19.453125 C 54.90625 -23.046875 54.210938 -25.640625 52.828125 -27.234375 C 51.453125 -28.835938 49.582031 -29.640625 47.21875 -29.640625 C 45.707031 -29.640625 44.273438 -29.175781 42.921875 -28.25 C 41.578125 -27.332031 40.488281 -26.046875 39.65625 -24.390625 C 38.832031 -22.734375 38.421875 -20.804688 38.421875 -18.609375 L 38.421875 0 L 29.953125 0 L 29.953125 -19.453125 C 29.953125 -23.046875 29.257812 -25.640625 27.875 -27.234375 C 26.5 -28.835938 24.640625 -29.640625 22.296875 -29.640625 C 20.753906 -29.640625 19.316406 -29.175781 17.984375 -28.25 C 16.648438 -27.332031 15.566406 -26.046875 14.734375 -24.390625 C 13.910156 -22.734375 13.5 -20.804688 13.5 -18.609375 L 13.5 0 L 5.03125 0 L 5.03125 -36.4375 L 13.046875 -36.4375 L 13.15625 -30.765625 C 13.789062 -32.066406 14.675781 -33.222656 15.8125 -34.234375 C 16.945312 -35.253906 18.273438 -36.054688 19.796875 -36.640625 C 21.316406 -37.234375 22.976562 -37.53125 24.78125 -37.53125 C 27.820312 -37.53125 30.351562 -36.828125 32.375 -35.421875 C 34.394531 -34.015625 35.914062 -31.976562 36.9375 -29.3125 C 38.5 -32.125 40.363281 -34.195312 42.53125 -35.53125 C 44.707031 -36.863281 47.097656 -37.53125 49.703125 -37.53125 Z M 49.703125 -37.53125 "/></g></g></g></g></g><g transform="matrix(1, 0, 0, 1, 212, 134)"><g clip-path="url(#0e0235986f)"><g clip-path="url(#c1ba1d594c)"><g fill="#f7f2e8" fill-opacity="1"><g transform="translate(0.626426, 76.891466)"><g><path d="M 18.890625 0.71875 C 14.347656 0.71875 10.894531 -0.441406 8.53125 -2.765625 C 6.175781 -5.097656 5 -8.289062 5 -12.34375 C 5 -14.945312 5.492188 -17.867188 6.484375 -21.109375 C 7.484375 -24.347656 8.679688 -27.570312 10.078125 -30.78125 C 12.492188 -37.132812 14.71875 -42.65625 16.75 -47.34375 C 18.78125 -52.039062 20.75 -55.945312 22.65625 -59.0625 C 24.5625 -62.175781 26.523438 -64.503906 28.546875 -66.046875 C 30.578125 -67.597656 32.863281 -68.375 35.40625 -68.375 C 37.894531 -68.375 39.941406 -67.597656 41.546875 -66.046875 C 43.148438 -64.503906 43.953125 -62.34375 43.953125 -59.5625 C 43.953125 -57.082031 43.300781 -54.328125 42 -51.296875 C 40.695312 -48.273438 38.773438 -45.082031 36.234375 -41.71875 C 33.691406 -38.363281 30.539062 -34.898438 26.78125 -31.328125 C 23.03125 -27.753906 18.703125 -24.148438 13.796875 -20.515625 C 13.378906 -19.671875 12.972656 -18.535156 12.578125 -17.109375 C 12.179688 -15.691406 11.984375 -14.46875 11.984375 -13.4375 C 11.984375 -11.320312 12.554688 -9.597656 13.703125 -8.265625 C 14.859375 -6.929688 16.890625 -6.265625 19.796875 -6.265625 C 22.398438 -6.265625 25.015625 -6.75 27.640625 -7.71875 C 30.273438 -8.6875 32.847656 -10.015625 35.359375 -11.703125 C 37.878906 -13.398438 40.269531 -15.351562 42.53125 -17.5625 C 44.800781 -19.78125 46.847656 -22.160156 48.671875 -24.703125 L 53.5625 -20.0625 C 51.320312 -17.09375 48.851562 -14.335938 46.15625 -11.796875 C 43.46875 -9.253906 40.65625 -7.0625 37.71875 -5.21875 C 34.789062 -3.375 31.734375 -1.921875 28.546875 -0.859375 C 25.367188 0.191406 22.148438 0.71875 18.890625 0.71875 Z M 18.34375 -32.328125 C 20.519531 -34.378906 22.710938 -36.585938 24.921875 -38.953125 C 27.128906 -41.316406 29.109375 -43.675781 30.859375 -46.03125 C 32.617188 -48.394531 34.054688 -50.664062 35.171875 -52.84375 C 36.296875 -55.019531 36.859375 -56.957031 36.859375 -58.65625 C 36.859375 -59.5625 36.644531 -60.222656 36.21875 -60.640625 C 35.800781 -61.066406 35.289062 -61.28125 34.6875 -61.28125 C 33.832031 -61.28125 32.984375 -60.960938 32.140625 -60.328125 C 31.296875 -59.691406 30.375 -58.601562 29.375 -57.0625 C 28.375 -55.519531 27.253906 -53.445312 26.015625 -50.84375 C 24.773438 -48.238281 23.367188 -44.941406 21.796875 -40.953125 Z M 18.34375 -32.328125 "/></g></g></g></g></g></g><g fill="#29d067" fill-opacity="1"><g transform="translate(153.08541, 228.314486)"><g><path d="M 2.828125 0 L 1.453125 0 L 1.453125 -10.625 L 5.8125 -10.625 C 6.320312 -10.625 6.789062 -10.535156 7.21875 -10.359375 C 7.65625 -10.191406 8.03125 -9.953125 8.34375 -9.640625 C 8.664062 -9.335938 8.910156 -8.972656 9.078125 -8.546875 C 9.253906 -8.117188 9.34375 -7.65625 9.34375 -7.15625 C 9.34375 -6.632812 9.253906 -6.160156 9.078125 -5.734375 C 8.910156 -5.304688 8.671875 -4.9375 8.359375 -4.625 C 8.046875 -4.3125 7.675781 -4.066406 7.25 -3.890625 C 6.820312 -3.722656 6.351562 -3.640625 5.84375 -3.640625 L 2.828125 -3.640625 Z M 2.828125 -9.390625 L 2.828125 -4.890625 L 5.78125 -4.890625 C 6.195312 -4.890625 6.566406 -4.988281 6.890625 -5.1875 C 7.222656 -5.382812 7.484375 -5.65625 7.671875 -6 C 7.859375 -6.34375 7.953125 -6.726562 7.953125 -7.15625 C 7.953125 -7.457031 7.894531 -7.742188 7.78125 -8.015625 C 7.675781 -8.285156 7.523438 -8.519531 7.328125 -8.71875 C 7.128906 -8.925781 6.894531 -9.085938 6.625 -9.203125 C 6.363281 -9.328125 6.078125 -9.390625 5.765625 -9.390625 Z M 2.828125 -9.390625 "/></g></g></g><g fill="#29d067" fill-opacity="1"><g transform="translate(161.859309, 228.314486)"><g><path d="M 2.828125 0 L 1.453125 0 L 1.453125 -10.625 L 5.96875 -10.625 C 6.476562 -10.625 6.945312 -10.546875 7.375 -10.390625 C 7.8125 -10.234375 8.1875 -10.003906 8.5 -9.703125 C 8.8125 -9.410156 9.050781 -9.0625 9.21875 -8.65625 C 9.394531 -8.25 9.484375 -7.796875 9.484375 -7.296875 C 9.484375 -6.773438 9.382812 -6.300781 9.1875 -5.875 C 9 -5.457031 8.726562 -5.101562 8.375 -4.8125 C 8.03125 -4.53125 7.625 -4.328125 7.15625 -4.203125 L 9.71875 0 L 8.125 0 L 5.765625 -4 C 5.710938 -4 5.65625 -4 5.59375 -4 C 5.539062 -4 5.484375 -4 5.421875 -4 L 2.828125 -4 Z M 2.828125 -9.390625 L 2.828125 -5.171875 L 5.9375 -5.171875 C 6.351562 -5.179688 6.722656 -5.269531 7.046875 -5.4375 C 7.367188 -5.613281 7.625 -5.859375 7.8125 -6.171875 C 8.007812 -6.492188 8.109375 -6.863281 8.109375 -7.28125 C 8.109375 -7.6875 8.007812 -8.046875 7.8125 -8.359375 C 7.625 -8.679688 7.363281 -8.929688 7.03125 -9.109375 C 6.695312 -9.296875 6.320312 -9.390625 5.90625 -9.390625 Z M 2.828125 -9.390625 "/></g></g></g><g fill="#29d067" fill-opacity="1"><g transform="translate(171.179949, 228.314486)"><g><path d="M 6.3125 0.21875 C 5.6875 0.21875 5.085938 0.125 4.515625 -0.0625 C 3.953125 -0.25 3.429688 -0.507812 2.953125 -0.84375 C 2.484375 -1.1875 2.070312 -1.585938 1.71875 -2.046875 C 1.375 -2.515625 1.109375 -3.023438 0.921875 -3.578125 C 0.734375 -4.128906 0.640625 -4.710938 0.640625 -5.328125 C 0.640625 -5.941406 0.734375 -6.523438 0.921875 -7.078125 C 1.109375 -7.640625 1.375 -8.148438 1.71875 -8.609375 C 2.070312 -9.066406 2.484375 -9.460938 2.953125 -9.796875 C 3.429688 -10.140625 3.953125 -10.398438 4.515625 -10.578125 C 5.085938 -10.765625 5.6875 -10.859375 6.3125 -10.859375 C 6.9375 -10.859375 7.53125 -10.765625 8.09375 -10.578125 C 8.664062 -10.398438 9.1875 -10.140625 9.65625 -9.796875 C 10.132812 -9.460938 10.546875 -9.066406 10.890625 -8.609375 C 11.242188 -8.148438 11.515625 -7.640625 11.703125 -7.078125 C 11.898438 -6.523438 12 -5.941406 12 -5.328125 C 12 -4.710938 11.898438 -4.128906 11.703125 -3.578125 C 11.515625 -3.023438 11.242188 -2.515625 10.890625 -2.046875 C 10.546875 -1.585938 10.132812 -1.1875 9.65625 -0.84375 C 9.1875 -0.507812 8.664062 -0.25 8.09375 -0.0625 C 7.53125 0.125 6.9375 0.21875 6.3125 0.21875 Z M 6.3125 -1.078125 C 6.90625 -1.078125 7.460938 -1.179688 7.984375 -1.390625 C 8.503906 -1.609375 8.960938 -1.910156 9.359375 -2.296875 C 9.753906 -2.679688 10.0625 -3.128906 10.28125 -3.640625 C 10.5 -4.160156 10.609375 -4.722656 10.609375 -5.328125 C 10.609375 -5.929688 10.5 -6.488281 10.28125 -7 C 10.0625 -7.519531 9.753906 -7.972656 9.359375 -8.359375 C 8.960938 -8.742188 8.503906 -9.046875 7.984375 -9.265625 C 7.460938 -9.484375 6.90625 -9.59375 6.3125 -9.59375 C 5.71875 -9.59375 5.160156 -9.484375 4.640625 -9.265625 C 4.117188 -9.046875 3.660156 -8.742188 3.265625 -8.359375 C 2.878906 -7.972656 2.570312 -7.519531 2.34375 -7 C 2.125 -6.488281 2.015625 -5.929688 2.015625 -5.328125 C 2.015625 -4.722656 2.125 -4.160156 2.34375 -3.640625 C 2.570312 -3.128906 2.878906 -2.679688 3.265625 -2.296875 C 3.660156 -1.910156 4.117188 -1.609375 4.640625 -1.390625 C 5.160156 -1.179688 5.71875 -1.078125 6.3125 -1.078125 Z M 6.3125 -1.078125 "/></g></g></g><g fill="#29d067" fill-opacity="1"><g transform="translate(182.921872, 228.314486)"><g><path d="M 5.359375 0 L 1.453125 0 L 1.453125 -10.625 L 5.328125 -10.625 C 6.171875 -10.625 6.9375 -10.5 7.625 -10.25 C 8.3125 -10 8.898438 -9.640625 9.390625 -9.171875 C 9.890625 -8.703125 10.269531 -8.140625 10.53125 -7.484375 C 10.800781 -6.835938 10.9375 -6.117188 10.9375 -5.328125 C 10.9375 -4.523438 10.800781 -3.796875 10.53125 -3.140625 C 10.269531 -2.492188 9.890625 -1.9375 9.390625 -1.46875 C 8.898438 -1 8.3125 -0.632812 7.625 -0.375 C 6.945312 -0.125 6.191406 0 5.359375 0 Z M 2.8125 -9.390625 L 2.8125 -1.25 L 5.328125 -1.25 C 6.191406 -1.25 6.9375 -1.414062 7.5625 -1.75 C 8.195312 -2.082031 8.679688 -2.550781 9.015625 -3.15625 C 9.359375 -3.757812 9.53125 -4.472656 9.53125 -5.296875 C 9.53125 -6.117188 9.359375 -6.835938 9.015625 -7.453125 C 8.679688 -8.066406 8.195312 -8.539062 7.5625 -8.875 C 6.925781 -9.21875 6.171875 -9.390625 5.296875 -9.390625 Z M 2.8125 -9.390625 "/></g></g></g><g fill="#29d067" fill-opacity="1"><g transform="translate(193.609372, 228.314486)"><g><path d="M 5.640625 0.21875 C 5.023438 0.21875 4.445312 0.117188 3.90625 -0.078125 C 3.375 -0.285156 2.910156 -0.578125 2.515625 -0.953125 C 2.117188 -1.335938 1.804688 -1.796875 1.578125 -2.328125 C 1.359375 -2.867188 1.25 -3.46875 1.25 -4.125 L 1.25 -10.640625 L 2.625 -10.640625 L 2.625 -4.21875 C 2.625 -3.789062 2.6875 -3.382812 2.8125 -3 C 2.945312 -2.625 3.144531 -2.289062 3.40625 -2 C 3.664062 -1.707031 3.984375 -1.476562 4.359375 -1.3125 C 4.734375 -1.144531 5.160156 -1.0625 5.640625 -1.0625 C 6.117188 -1.0625 6.539062 -1.140625 6.90625 -1.296875 C 7.28125 -1.460938 7.597656 -1.691406 7.859375 -1.984375 C 8.117188 -2.273438 8.316406 -2.609375 8.453125 -2.984375 C 8.585938 -3.367188 8.65625 -3.773438 8.65625 -4.203125 L 8.65625 -10.640625 L 10.046875 -10.640625 L 10.046875 -4.125 C 10.046875 -3.476562 9.9375 -2.890625 9.71875 -2.359375 C 9.5 -1.828125 9.191406 -1.367188 8.796875 -0.984375 C 8.410156 -0.609375 7.945312 -0.3125 7.40625 -0.09375 C 6.875 0.113281 6.285156 0.21875 5.640625 0.21875 Z M 5.640625 0.21875 "/></g></g></g><g fill="#29d067" fill-opacity="1"><g transform="translate(204.007873, 228.314486)"><g><path d="M 6.171875 0.21875 C 5.546875 0.21875 4.953125 0.125 4.390625 -0.0625 C 3.835938 -0.25 3.332031 -0.507812 2.875 -0.84375 C 2.414062 -1.1875 2.019531 -1.585938 1.6875 -2.046875 C 1.351562 -2.515625 1.09375 -3.023438 0.90625 -3.578125 C 0.726562 -4.128906 0.640625 -4.710938 0.640625 -5.328125 C 0.640625 -5.941406 0.726562 -6.523438 0.90625 -7.078125 C 1.09375 -7.640625 1.351562 -8.148438 1.6875 -8.609375 C 2.019531 -9.066406 2.414062 -9.460938 2.875 -9.796875 C 3.332031 -10.140625 3.835938 -10.398438 4.390625 -10.578125 C 4.953125 -10.765625 5.546875 -10.859375 6.171875 -10.859375 C 6.734375 -10.859375 7.28125 -10.78125 7.8125 -10.625 C 8.351562 -10.46875 8.847656 -10.226562 9.296875 -9.90625 C 9.753906 -9.582031 10.144531 -9.179688 10.46875 -8.703125 C 10.789062 -8.222656 11.019531 -7.660156 11.15625 -7.015625 L 9.75 -7.015625 C 9.582031 -7.585938 9.320312 -8.0625 8.96875 -8.4375 C 8.625 -8.820312 8.207031 -9.109375 7.71875 -9.296875 C 7.238281 -9.492188 6.710938 -9.59375 6.140625 -9.59375 C 5.554688 -9.59375 5.015625 -9.488281 4.515625 -9.28125 C 4.015625 -9.070312 3.578125 -8.773438 3.203125 -8.390625 C 2.835938 -8.003906 2.546875 -7.550781 2.328125 -7.03125 C 2.117188 -6.519531 2.015625 -5.953125 2.015625 -5.328125 C 2.015625 -4.703125 2.117188 -4.128906 2.328125 -3.609375 C 2.546875 -3.085938 2.835938 -2.632812 3.203125 -2.25 C 3.578125 -1.875 4.015625 -1.582031 4.515625 -1.375 C 5.015625 -1.175781 5.554688 -1.078125 6.140625 -1.078125 C 6.710938 -1.078125 7.238281 -1.171875 7.71875 -1.359375 C 8.207031 -1.546875 8.625 -1.828125 8.96875 -2.203125 C 9.320312 -2.585938 9.578125 -3.066406 9.734375 -3.640625 L 11.15625 -3.640625 C 11.019531 -2.992188 10.789062 -2.429688 10.46875 -1.953125 C 10.15625 -1.472656 9.769531 -1.070312 9.3125 -0.75 C 8.863281 -0.425781 8.367188 -0.179688 7.828125 -0.015625 C 7.296875 0.140625 6.742188 0.21875 6.171875 0.21875 Z M 6.171875 0.21875 "/></g></g></g><g fill="#29d067" fill-opacity="1"><g transform="translate(214.914069, 228.314486)"><g><path d="M 5.125 0 L 3.75 0 L 3.75 -9.390625 L 0.390625 -9.390625 L 0.390625 -10.625 L 8.5 -10.625 L 8.5 -9.390625 L 5.125 -9.390625 Z M 5.125 0 "/></g></g></g><g fill="#29d067" fill-opacity="1"><g transform="translate(222.914725, 228.314486)"><g/></g></g><g fill="#29d067" fill-opacity="1"><g transform="translate(225.986891, 228.314486)"><g><path d="M 5.359375 0 L 1.453125 0 L 1.453125 -10.625 L 5.328125 -10.625 C 6.171875 -10.625 6.9375 -10.5 7.625 -10.25 C 8.3125 -10 8.898438 -9.640625 9.390625 -9.171875 C 9.890625 -8.703125 10.269531 -8.140625 10.53125 -7.484375 C 10.800781 -6.835938 10.9375 -6.117188 10.9375 -5.328125 C 10.9375 -4.523438 10.800781 -3.796875 10.53125 -3.140625 C 10.269531 -2.492188 9.890625 -1.9375 9.390625 -1.46875 C 8.898438 -1 8.3125 -0.632812 7.625 -0.375 C 6.945312 -0.125 6.191406 0 5.359375 0 Z M 2.8125 -9.390625 L 2.8125 -1.25 L 5.328125 -1.25 C 6.191406 -1.25 6.9375 -1.414062 7.5625 -1.75 C 8.195312 -2.082031 8.679688 -2.550781 9.015625 -3.15625 C 9.359375 -3.757812 9.53125 -4.472656 9.53125 -5.296875 C 9.53125 -6.117188 9.359375 -6.835938 9.015625 -7.453125 C 8.679688 -8.066406 8.195312 -8.539062 7.5625 -8.875 C 6.925781 -9.21875 6.171875 -9.390625 5.296875 -9.390625 Z M 2.8125 -9.390625 "/></g></g></g><g fill="#29d067" fill-opacity="1"><g transform="translate(236.67439, 228.314486)"><g><path d="M 8.578125 0 L 1.453125 0 L 1.453125 -10.625 L 8.515625 -10.625 L 8.515625 -9.375 L 2.828125 -9.375 L 2.828125 -6 L 7.765625 -6 L 7.765625 -4.8125 L 2.828125 -4.8125 L 2.828125 -1.25 L 8.578125 -1.25 Z M 8.578125 0 "/></g></g></g><g fill="#29d067" fill-opacity="1"><g transform="translate(244.93279, 228.314486)"><g><path d="M 4.765625 0.234375 C 4.046875 0.234375 3.421875 0.140625 2.890625 -0.046875 C 2.367188 -0.242188 1.9375 -0.5 1.59375 -0.8125 C 1.25 -1.132812 0.992188 -1.492188 0.828125 -1.890625 C 0.671875 -2.285156 0.59375 -2.679688 0.59375 -3.078125 L 1.96875 -3.078125 C 1.96875 -2.710938 2.078125 -2.367188 2.296875 -2.046875 C 2.523438 -1.722656 2.84375 -1.460938 3.25 -1.265625 C 3.664062 -1.066406 4.164062 -0.96875 4.75 -0.96875 C 5.65625 -0.96875 6.347656 -1.128906 6.828125 -1.453125 C 7.316406 -1.785156 7.5625 -2.28125 7.5625 -2.9375 C 7.5625 -3.351562 7.441406 -3.6875 7.203125 -3.9375 C 6.960938 -4.195312 6.632812 -4.398438 6.21875 -4.546875 C 5.800781 -4.691406 5.328125 -4.800781 4.796875 -4.875 C 4.441406 -4.9375 4.078125 -5.007812 3.703125 -5.09375 C 3.335938 -5.1875 2.984375 -5.304688 2.640625 -5.453125 C 2.304688 -5.597656 2.003906 -5.78125 1.734375 -6 C 1.460938 -6.21875 1.25 -6.484375 1.09375 -6.796875 C 0.9375 -7.109375 0.859375 -7.476562 0.859375 -7.90625 C 0.859375 -8.300781 0.929688 -8.675781 1.078125 -9.03125 C 1.222656 -9.394531 1.445312 -9.710938 1.75 -9.984375 C 2.0625 -10.253906 2.457031 -10.46875 2.9375 -10.625 C 3.425781 -10.78125 4.019531 -10.859375 4.71875 -10.859375 C 5.550781 -10.859375 6.25 -10.726562 6.8125 -10.46875 C 7.382812 -10.21875 7.816406 -9.863281 8.109375 -9.40625 C 8.398438 -8.957031 8.546875 -8.4375 8.546875 -7.84375 L 7.15625 -7.84375 C 7.15625 -8.195312 7.0625 -8.507812 6.875 -8.78125 C 6.6875 -9.050781 6.410156 -9.257812 6.046875 -9.40625 C 5.679688 -9.5625 5.234375 -9.640625 4.703125 -9.640625 C 4.222656 -9.640625 3.820312 -9.585938 3.5 -9.484375 C 3.1875 -9.390625 2.9375 -9.257812 2.75 -9.09375 C 2.570312 -8.9375 2.441406 -8.753906 2.359375 -8.546875 C 2.285156 -8.335938 2.25 -8.125 2.25 -7.90625 C 2.25 -7.53125 2.363281 -7.222656 2.59375 -6.984375 C 2.820312 -6.742188 3.15625 -6.550781 3.59375 -6.40625 C 4.039062 -6.257812 4.582031 -6.140625 5.21875 -6.046875 C 5.570312 -5.992188 5.925781 -5.921875 6.28125 -5.828125 C 6.644531 -5.734375 6.984375 -5.609375 7.296875 -5.453125 C 7.617188 -5.304688 7.90625 -5.117188 8.15625 -4.890625 C 8.40625 -4.671875 8.601562 -4.398438 8.75 -4.078125 C 8.894531 -3.753906 8.96875 -3.375 8.96875 -2.9375 C 8.96875 -2.28125 8.796875 -1.710938 8.453125 -1.234375 C 8.117188 -0.765625 7.632812 -0.398438 7 -0.140625 C 6.375 0.109375 5.628906 0.234375 4.765625 0.234375 Z M 4.765625 0.234375 "/></g></g></g><g fill="#29d067" fill-opacity="1"><g transform="translate(253.558293, 228.314486)"><g><path d="M 2.828125 0 L 1.453125 0 L 1.453125 -10.625 L 2.828125 -10.625 Z M 2.828125 0 "/></g></g></g><g fill="#29d067" fill-opacity="1"><g transform="translate(256.950699, 228.314486)"><g><path d="M 6.21875 0.203125 C 5.601562 0.203125 5.015625 0.109375 4.453125 -0.078125 C 3.890625 -0.265625 3.375 -0.523438 2.90625 -0.859375 C 2.445312 -1.191406 2.046875 -1.585938 1.703125 -2.046875 C 1.367188 -2.515625 1.109375 -3.023438 0.921875 -3.578125 C 0.734375 -4.128906 0.640625 -4.710938 0.640625 -5.328125 C 0.640625 -5.941406 0.734375 -6.523438 0.921875 -7.078125 C 1.109375 -7.640625 1.367188 -8.148438 1.703125 -8.609375 C 2.046875 -9.066406 2.445312 -9.460938 2.90625 -9.796875 C 3.375 -10.140625 3.890625 -10.398438 4.453125 -10.578125 C 5.015625 -10.765625 5.601562 -10.859375 6.21875 -10.859375 C 6.78125 -10.859375 7.332031 -10.78125 7.875 -10.625 C 8.425781 -10.46875 8.929688 -10.234375 9.390625 -9.921875 C 9.847656 -9.617188 10.242188 -9.242188 10.578125 -8.796875 C 10.910156 -8.347656 11.148438 -7.84375 11.296875 -7.28125 L 9.890625 -7.28125 C 9.691406 -7.757812 9.410156 -8.171875 9.046875 -8.515625 C 8.679688 -8.867188 8.253906 -9.132812 7.765625 -9.3125 C 7.285156 -9.5 6.757812 -9.59375 6.1875 -9.59375 C 5.613281 -9.59375 5.070312 -9.488281 4.5625 -9.28125 C 4.0625 -9.070312 3.617188 -8.773438 3.234375 -8.390625 C 2.859375 -8.003906 2.5625 -7.550781 2.34375 -7.03125 C 2.132812 -6.507812 2.03125 -5.941406 2.03125 -5.328125 C 2.03125 -4.703125 2.132812 -4.128906 2.34375 -3.609375 C 2.5625 -3.085938 2.859375 -2.632812 3.234375 -2.25 C 3.617188 -1.875 4.0625 -1.582031 4.5625 -1.375 C 5.070312 -1.175781 5.613281 -1.078125 6.1875 -1.078125 C 6.789062 -1.078125 7.320312 -1.160156 7.78125 -1.328125 C 8.25 -1.492188 8.648438 -1.726562 8.984375 -2.03125 C 9.316406 -2.332031 9.582031 -2.679688 9.78125 -3.078125 C 9.988281 -3.472656 10.128906 -3.894531 10.203125 -4.34375 L 6.140625 -4.34375 L 6.140625 -5.59375 L 11.640625 -5.59375 C 11.640625 -4.789062 11.519531 -4.035156 11.28125 -3.328125 C 11.039062 -2.628906 10.6875 -2.015625 10.21875 -1.484375 C 9.757812 -0.960938 9.191406 -0.550781 8.515625 -0.25 C 7.847656 0.0507812 7.082031 0.203125 6.21875 0.203125 Z M 6.21875 0.203125 "/></g></g></g><g fill="#29d067" fill-opacity="1"><g transform="translate(268.341152, 228.314486)"><g><path d="M 9.171875 -2.296875 L 9.171875 -10.625 L 10.546875 -10.625 L 10.546875 0 L 9.375 0 L 2.828125 -8.3125 L 2.828125 0 L 1.453125 0 L 1.453125 -10.625 L 2.609375 -10.625 L 9.15625 -2.296875 Z M 9.171875 -2.296875 "/></g></g></g><g fill="#29d067" fill-opacity="1"><g transform="translate(279.442607, 228.314486)"><g><path d="M 8.578125 0 L 1.453125 0 L 1.453125 -10.625 L 8.515625 -10.625 L 8.515625 -9.375 L 2.828125 -9.375 L 2.828125 -6 L 7.765625 -6 L 7.765625 -4.8125 L 2.828125 -4.8125 L 2.828125 -1.25 L 8.578125 -1.25 Z M 8.578125 0 "/></g></g></g><g fill="#29d067" fill-opacity="1"><g transform="translate(287.701006, 228.314486)"><g><path d="M 2.828125 0 L 1.453125 0 L 1.453125 -10.625 L 5.96875 -10.625 C 6.476562 -10.625 6.945312 -10.546875 7.375 -10.390625 C 7.8125 -10.234375 8.1875 -10.003906 8.5 -9.703125 C 8.8125 -9.410156 9.050781 -9.0625 9.21875 -8.65625 C 9.394531 -8.25 9.484375 -7.796875 9.484375 -7.296875 C 9.484375 -6.773438 9.382812 -6.300781 9.1875 -5.875 C 9 -5.457031 8.726562 -5.101562 8.375 -4.8125 C 8.03125 -4.53125 7.625 -4.328125 7.15625 -4.203125 L 9.71875 0 L 8.125 0 L 5.765625 -4 C 5.710938 -4 5.65625 -4 5.59375 -4 C 5.539062 -4 5.484375 -4 5.421875 -4 L 2.828125 -4 Z M 2.828125 -9.390625 L 2.828125 -5.171875 L 5.9375 -5.171875 C 6.351562 -5.179688 6.722656 -5.269531 7.046875 -5.4375 C 7.367188 -5.613281 7.625 -5.859375 7.8125 -6.171875 C 8.007812 -6.492188 8.109375 -6.863281 8.109375 -7.28125 C 8.109375 -7.6875 8.007812 -8.046875 7.8125 -8.359375 C 7.625 -8.679688 7.363281 -8.929688 7.03125 -9.109375 C 6.695312 -9.296875 6.320312 -9.390625 5.90625 -9.390625 Z M 2.828125 -9.390625 "/></g></g></g></svg>